<?xml version="1.0" encoding="UTF-8" standalone="no"?>
<!-- Created with Inkscape (http://www.inkscape.org/) -->

<svg
   width="128"
   height="128"
   viewBox="0 0 33.866666 33.866667"
   version="1.1"
   id="svg1"
   inkscape:version="1.4 (86a8ad7, 2024-10-11)"
   sodipodi:docname="enemy.svg"
   xmlns:inkscape="http://www.inkscape.org/namespaces/inkscape"
   xmlns:sodipodi="http://sodipodi.sourceforge.net/DTD/sodipodi-0.dtd"
   xmlns="http://www.w3.org/2000/svg"
   xmlns:svg="http://www.w3.org/2000/svg">
  <sodipodi:namedview
     id="namedview1"
     pagecolor="#ffffff"
     bordercolor="#000000"
     borderopacity="0.25"
     inkscape:showpageshadow="2"
     inkscape:pageopacity="0.0"
     inkscape:pagecheckerboard="true"
     inkscape:deskcolor="#d1d1d1"
     inkscape:document-units="mm"
     inkscape:zoom="4.59"
     inkscape:cx="52.178649"
     inkscape:cy="62.200436"
     inkscape:window-width="1920"
     inkscape:window-height="1009"
     inkscape:window-x="-8"
     inkscape:window-y="-8"
     inkscape:window-maximized="1"
     inkscape:current-layer="layer1"
     showgrid="true">
    <inkscape:grid
       id="grid1"
       units="px"
       originx="0"
       originy="0"
       spacingx="1.0583333"
       spacingy="1.0583333"
       empcolor="#0099e5"
       empopacity="0.30196078"
       color="#0099e5"
       opacity="0.14901961"
       empspacing="4"
       enabled="true"
       visible="true"
       dotted="false" />
  </sodipodi:namedview>
  <defs
     id="defs1" />
  <g
     inkscape:label="Layer 1"
     inkscape:groupmode="layer"
     id="layer1">
    <path
       id="rect1"
       style="fill:#8da5f3;fill-opacity:1;stroke-width:7.40833;stroke-linecap:round"
       d="m 117.3458,1.7497622 c -2.77,0 -5.00021,2.2302116 -5.00021,5.0002116 V 56.750022 c 0,2.77 2.23021,5.000212 5.00021,5.000212 h 50.00005 c 2.77,0 5.00021,-2.230212 5.00021,-5.000212 V 6.7499738 c 0,-2.77 -2.23021,-5.0002116 -5.00021,-5.0002116 z m 7.00836,2.5920898 a 10,10 0 0 1 9.99991,9.999906 10,10 0 0 1 -9.99991,9.999906 10,10 0 0 1 -9.99991,-9.999906 10,10 0 0 1 9.99991,-9.999906 z m 36.38021,0 a 10,10 0 0 1 9.99991,9.999906 10,10 0 0 1 -9.99991,9.999906 10,10 0 0 1 -9.99991,-9.999906 10,10 0 0 1 9.99991,-9.999906 z m -18.38854,5.712312 a 5.8208332,21.695833 0 0 1 5.62188,16.080156 21.695833,5.8208332 0 0 1 16.07395,5.615678 21.695833,5.8208332 0 0 1 -16.07395,5.615678 5.8208332,21.695833 0 0 1 -5.62188,16.080155 5.8208332,21.695833 0 0 1 -5.6162,-16.079639 21.695833,5.8208332 0 0 1 -16.07964,-5.616194 21.695833,5.8208332 0 0 1 16.07964,-5.616195 5.8208332,21.695833 0 0 1 5.6162,-16.079639 z M 124.35416,40.72206 a 10,10 0 0 1 9.99991,9.999906 10,10 0 0 1 -9.99991,9.999907 10,10 0 0 1 -9.99991,-9.999907 10,10 0 0 1 9.99991,-9.999906 z m 36.38021,0 a 10,10 0 0 1 9.99991,9.999906 10,10 0 0 1 -9.99991,9.999907 10,10 0 0 1 -9.99991,-9.999907 10,10 0 0 1 9.99991,-9.999906 z" />
    <rect
       style="fill:#3d64dd;fill-opacity:1;stroke-width:7.40833;stroke-linecap:round"
       id="rect4"
       width="60"
       height="60"
       x="-84.84687"
       y="0.63750052"
       rx="5"
       ry="5" />
    <circle
       style="fill:#1a1a1a;fill-opacity:1;stroke-width:7.40833;stroke-linecap:round"
       id="circle5"
       cx="-72.838539"
       cy="13.229166"
       r="10" />
    <circle
       style="fill:#1a1a1a;fill-opacity:1;stroke-width:7.40833;stroke-linecap:round"
       id="circle6"
       cx="-36.458332"
       cy="13.229166"
       r="10" />
    <circle
       style="fill:#1a1a1a;fill-opacity:1;stroke-width:7.40833;stroke-linecap:round"
       id="circle7"
       cx="-36.458332"
       cy="49.609375"
       r="10" />
    <circle
       style="fill:#1a1a1a;fill-opacity:1;stroke-width:7.40833;stroke-linecap:round"
       id="circle8"
       cx="-72.838539"
       cy="49.609375"
       r="10" />
    <ellipse
       style="fill:#1a1a1a;fill-opacity:1;stroke-width:8.3253;stroke-linecap:round"
       id="ellipse8"
       cx="-54.846874"
       cy="30.637499"
       rx="21.695833"
       ry="5.8208332" />
    <ellipse
       style="fill:#1a1a1a;fill-opacity:1;stroke-width:8.3253;stroke-linecap:round"
       id="ellipse9"
       cx="30.637499"
       cy="54.846874"
       rx="21.695833"
       ry="5.8208332"
       transform="rotate(90)" />
    <path
       id="path3"
       style="fill:#8da5f3;fill-opacity:1;stroke-width:7.40833;stroke-linecap:round"
       d="m 56.003815,5.6291129 a 6.3430824,6.3430824 0 0 1 -5.69681,3.557405 6.3430824,6.3430824 0 0 1 -5.68234,-3.54862 12.699999,6.3499994 0 0 0 -7.017659,5.6652871 12.699999,6.3499994 0 0 0 0.06925,0.528133 c -0.0435,0.169571 -0.06925,0.346691 -0.06925,0.5302 v 12.7 c 0,1.172633 0.944033,2.116667 2.116666,2.116667 h 21.166667 c 1.172633,0 2.116666,-0.944034 2.116666,-2.116667 v -12.7 c 0,-0.163577 -0.0205,-0.322167 -0.05529,-0.474906 a 12.699999,6.3499994 0 0 0 0.05529,-0.583427 12.699999,6.3499994 0 0 0 -7.00319,-5.6740721 z m 0.145728,6.7758141 a 2.0843859,2.0843859 0 0 1 2.084627,2.084627 2.0843859,2.0843859 0 0 1 -2.084627,2.084627 2.0843859,2.0843859 0 0 1 -2.084111,-2.084627 2.0843859,2.0843859 0 0 1 2.084111,-2.084627 z m -12.757878,0.295072 c 1.073118,0 1.936833,1.151448 1.936833,2.582271 v 0.645956 h 0.645955 c 1.430823,0 2.582272,0.863714 2.582272,1.936832 0,1.073117 -1.151449,1.93735 -2.582272,1.93735 h -0.645955 v 0.645438 c 0,1.430823 -0.863715,2.582789 -1.936833,2.582789 -1.073116,0 -1.937349,-1.151966 -1.937349,-2.582789 v -0.645438 h -0.645439 c -1.430823,0 -2.582788,-0.864233 -2.582788,-1.93735 0,-1.073118 1.151965,-1.936832 2.582788,-1.936832 h 0.645439 V 15.28227 c 0,-1.430823 0.864233,-2.582271 1.937349,-2.582271 z m 9.119857,2.80448 a 2.0843859,2.0843859 0 0 1 2.08411,2.08411 2.0843859,2.0843859 0 0 1 -2.08411,2.084628 2.0843859,2.0843859 0 0 1 -2.084627,-2.084628 2.0843859,2.0843859 0 0 1 2.084627,-2.08411 z m 7.435722,0.276469 a 2.0843859,2.0843859 0 0 1 2.084627,2.08411 2.0843859,2.0843859 0 0 1 -2.084627,2.084628 2.0843859,2.0843859 0 0 1 -2.084111,-2.084628 2.0843859,2.0843859 0 0 1 2.084111,-2.08411 z m -3.797701,2.93057 a 2.0843859,2.0843859 0 0 1 2.084627,2.084628 2.0843859,2.0843859 0 0 1 -2.084627,2.08411 2.0843859,2.0843859 0 0 1 -2.084111,-2.08411 2.0843859,2.0843859 0 0 1 2.084111,-2.084628 z m -7.517371,3.564124 h 1.822111 c 0.504724,0 0.911056,0.298552 0.911056,0.66921 0,0.370658 -0.406332,0.669209 -0.911056,0.669209 h -1.822111 c -0.504724,0 -0.911055,-0.298551 -0.911055,-0.669209 0,-0.370658 0.406331,-0.66921 0.911055,-0.66921 z" />
    <circle
       style="fill:#8da5f3;fill-opacity:1;stroke-width:7.40833;stroke-linecap:round"
       id="circle3"
       cx="50.300087"
       cy="2.8365178"
       r="5.298584" />
    <path
       id="rect12"
       style="fill:#8da5f3;stroke-width:8.64305;stroke-linecap:round"
       d="M 16.933333 2.1166667 C 8.7249013 2.1166667 2.1166667 8.7249011 2.1166667 16.933333 C 2.1166667 17.349546 2.1375996 17.760551 2.1709269 18.167883 L 2.1166667 18.167883 L 2.1166667 31.75 L 16.933333 31.75 L 31.75 31.75 L 31.75 18.167883 L 31.69574 18.167883 C 31.729067 17.760551 31.75 17.349546 31.75 16.933333 C 31.75 8.7249011 25.141766 2.1166667 16.933333 2.1166667 z M 10.75955 9.525 A 3.7041664 3.7041659 0 0 1 14.463717 13.229167 A 3.7041664 3.7041659 0 0 1 10.75955 16.933333 A 3.7041664 3.7041659 0 0 1 7.0553833 13.229167 A 3.7041664 3.7041659 0 0 1 10.75955 9.525 z M 23.107117 9.525 A 3.7041664 3.7041659 0 0 1 26.811283 13.229167 A 3.7041664 3.7041659 0 0 1 23.107117 16.933333 A 3.7041664 3.7041659 0 0 1 19.40295 13.229167 A 3.7041664 3.7041659 0 0 1 23.107117 9.525 z M 16.857369 21.865332 L 22.884908 24.142712 L 25.839766 22.171773 A 1.75 1.75 0 0 1 28.267525 22.658049 A 1.75 1.75 0 0 1 27.78125 25.08374 L 23.329842 28.052551 L 17.009814 25.664067 L 12.015804 28.021545 L 6.3458659 25.501803 A 1.75 1.75 0 0 1 5.4570312 23.191349 A 1.75 1.75 0 0 1 7.7654175 22.302515 L 11.972913 24.171651 L 16.857369 21.865332 z " />
  </g>
</svg>
