<?xml version="1.0" encoding="UTF-8" standalone="no"?>
<!-- Created with Inkscape (http://www.inkscape.org/) -->

<svg
   width="256"
   height="256"
   viewBox="0 0 67.733332 67.733333"
   version="1.1"
   id="svg1"
   inkscape:version="1.4 (86a8ad7, 2024-10-11)"
   sodipodi:docname="entity.svg"
   xmlns:inkscape="http://www.inkscape.org/namespaces/inkscape"
   xmlns:sodipodi="http://sodipodi.sourceforge.net/DTD/sodipodi-0.dtd"
   xmlns="http://www.w3.org/2000/svg"
   xmlns:svg="http://www.w3.org/2000/svg">
  <sodipodi:namedview
     id="namedview1"
     pagecolor="#ffffff"
     bordercolor="#000000"
     borderopacity="0.25"
     inkscape:showpageshadow="2"
     inkscape:pageopacity="0.0"
     inkscape:pagecheckerboard="true"
     inkscape:deskcolor="#d1d1d1"
     inkscape:document-units="mm"
     inkscape:zoom="2"
     inkscape:cx="120.25"
     inkscape:cy="123.25"
     inkscape:window-width="1920"
     inkscape:window-height="1009"
     inkscape:window-x="-8"
     inkscape:window-y="-8"
     inkscape:window-maximized="1"
     inkscape:current-layer="layer1"
     showgrid="true">
    <inkscape:grid
       id="grid1"
       units="px"
       originx="0"
       originy="0"
       spacingx="0.52916664"
       spacingy="0.52916663"
       empcolor="#0099e5"
       empopacity="0.30196078"
       color="#0099e5"
       opacity="0.14901961"
       empspacing="5"
       enabled="true"
       visible="true"
       dotted="true" />
  </sodipodi:namedview>
  <defs
     id="defs1" />
  <g
     inkscape:label="Layer 1"
     inkscape:groupmode="layer"
     id="layer1">
    <path
       id="rect1"
       style="fill:#8da5f3;stroke-width:7.40833;stroke-linecap:round;fill-opacity:1"
       d="M 8.8666423 3.8664307 C 6.0966423 3.8664307 3.8664307 6.0966423 3.8664307 8.8666423 L 3.8664307 58.866691 C 3.8664307 61.636691 6.0966423 63.866903 8.8666423 63.866903 L 58.866691 63.866903 C 61.636691 63.866903 63.866903 61.636691 63.866903 58.866691 L 63.866903 8.8666423 C 63.866903 6.0966423 61.636691 3.8664307 58.866691 3.8664307 L 8.8666423 3.8664307 z M 15.875 6.4585205 A 10 10 0 0 1 25.874906 16.458427 A 10 10 0 0 1 15.875 26.458333 A 10 10 0 0 1 5.8750936 16.458427 A 10 10 0 0 1 15.875 6.4585205 z M 52.255208 6.4585205 A 10 10 0 0 1 62.255115 16.458427 A 10 10 0 0 1 52.255208 26.458333 A 10 10 0 0 1 42.255302 16.458427 A 10 10 0 0 1 52.255208 6.4585205 z M 33.866667 12.170833 A 5.8208332 21.695833 0 0 1 39.488546 28.250989 A 21.695833 5.8208332 0 0 1 55.5625 33.866667 A 21.695833 5.8208332 0 0 1 39.488546 39.482345 A 5.8208332 21.695833 0 0 1 33.866667 55.5625 A 5.8208332 21.695833 0 0 1 28.250472 39.482861 A 21.695833 5.8208332 0 0 1 12.170833 33.866667 A 21.695833 5.8208332 0 0 1 28.250472 28.250472 A 5.8208332 21.695833 0 0 1 33.866667 12.170833 z M 15.875 42.838729 A 10 10 0 0 1 25.874906 52.838635 A 10 10 0 0 1 15.875 62.838542 A 10 10 0 0 1 5.8750936 52.838635 A 10 10 0 0 1 15.875 42.838729 z M 52.255208 42.838729 A 10 10 0 0 1 62.255115 52.838635 A 10 10 0 0 1 52.255208 62.838542 A 10 10 0 0 1 42.255302 52.838635 A 10 10 0 0 1 52.255208 42.838729 z " />
    <rect
       style="fill:#3d64dd;fill-opacity:1;stroke-width:7.40833;stroke-linecap:round"
       id="rect4"
       width="60"
       height="60"
       x="-84.84687"
       y="0.63750052"
       rx="5"
       ry="5" />
    <circle
       style="fill:#1a1a1a;fill-opacity:1;stroke-width:7.40833;stroke-linecap:round"
       id="circle5"
       cx="-72.838539"
       cy="13.229166"
       r="10" />
    <circle
       style="fill:#1a1a1a;fill-opacity:1;stroke-width:7.40833;stroke-linecap:round"
       id="circle6"
       cx="-36.458332"
       cy="13.229166"
       r="10" />
    <circle
       style="fill:#1a1a1a;fill-opacity:1;stroke-width:7.40833;stroke-linecap:round"
       id="circle7"
       cx="-36.458332"
       cy="49.609375"
       r="10" />
    <circle
       style="fill:#1a1a1a;fill-opacity:1;stroke-width:7.40833;stroke-linecap:round"
       id="circle8"
       cx="-72.838539"
       cy="49.609375"
       r="10" />
    <ellipse
       style="fill:#1a1a1a;fill-opacity:1;stroke-width:8.3253;stroke-linecap:round"
       id="ellipse8"
       cx="-54.846874"
       cy="30.637499"
       rx="21.695833"
       ry="5.8208332" />
    <ellipse
       style="fill:#1a1a1a;fill-opacity:1;stroke-width:8.3253;stroke-linecap:round"
       id="ellipse9"
       cx="30.637499"
       cy="54.846874"
       rx="21.695833"
       ry="5.8208332"
       transform="rotate(90)" />
  </g>
</svg>
