<?xml version="1.0" encoding="UTF-8" standalone="no"?>
<!-- Created with Inkscape (http://www.inkscape.org/) -->

<svg
   width="128"
   height="128"
   viewBox="0 0 33.866666 33.866667"
   version="1.1"
   id="svg1"
   inkscape:version="1.4 (86a8ad7, 2024-10-11)"
   sodipodi:docname="player.svg"
   xmlns:inkscape="http://www.inkscape.org/namespaces/inkscape"
   xmlns:sodipodi="http://sodipodi.sourceforge.net/DTD/sodipodi-0.dtd"
   xmlns="http://www.w3.org/2000/svg"
   xmlns:svg="http://www.w3.org/2000/svg">
  <sodipodi:namedview
     id="namedview1"
     pagecolor="#ffffff"
     bordercolor="#000000"
     borderopacity="0.25"
     inkscape:showpageshadow="2"
     inkscape:pageopacity="0.0"
     inkscape:pagecheckerboard="true"
     inkscape:deskcolor="#d1d1d1"
     inkscape:document-units="mm"
     inkscape:zoom="4.59"
     inkscape:cx="52.178649"
     inkscape:cy="62.200436"
     inkscape:window-width="1920"
     inkscape:window-height="1009"
     inkscape:window-x="-8"
     inkscape:window-y="-8"
     inkscape:window-maximized="1"
     inkscape:current-layer="layer1"
     showgrid="true">
    <inkscape:grid
       id="grid1"
       units="px"
       originx="0"
       originy="0"
       spacingx="1.0583333"
       spacingy="1.0583333"
       empcolor="#0099e5"
       empopacity="0.30196078"
       color="#0099e5"
       opacity="0.14901961"
       empspacing="4"
       enabled="true"
       visible="true"
       dotted="false" />
  </sodipodi:namedview>
  <defs
     id="defs1" />
  <g
     inkscape:label="Layer 1"
     inkscape:groupmode="layer"
     id="layer1">
    <path
       id="rect1"
       style="fill:#8da5f3;fill-opacity:1;stroke-width:7.40833;stroke-linecap:round"
       d="m 117.3458,1.7497622 c -2.77,0 -5.00021,2.2302116 -5.00021,5.0002116 V 56.750022 c 0,2.77 2.23021,5.000212 5.00021,5.000212 h 50.00005 c 2.77,0 5.00021,-2.230212 5.00021,-5.000212 V 6.7499738 c 0,-2.77 -2.23021,-5.0002116 -5.00021,-5.0002116 z m 7.00836,2.5920898 a 10,10 0 0 1 9.99991,9.999906 10,10 0 0 1 -9.99991,9.999906 10,10 0 0 1 -9.99991,-9.999906 10,10 0 0 1 9.99991,-9.999906 z m 36.38021,0 a 10,10 0 0 1 9.99991,9.999906 10,10 0 0 1 -9.99991,9.999906 10,10 0 0 1 -9.99991,-9.999906 10,10 0 0 1 9.99991,-9.999906 z m -18.38854,5.712312 a 5.8208332,21.695833 0 0 1 5.62188,16.080156 21.695833,5.8208332 0 0 1 16.07395,5.615678 21.695833,5.8208332 0 0 1 -16.07395,5.615678 5.8208332,21.695833 0 0 1 -5.62188,16.080155 5.8208332,21.695833 0 0 1 -5.6162,-16.079639 21.695833,5.8208332 0 0 1 -16.07964,-5.616194 21.695833,5.8208332 0 0 1 16.07964,-5.616195 5.8208332,21.695833 0 0 1 5.6162,-16.079639 z M 124.35416,40.72206 a 10,10 0 0 1 9.99991,9.999906 10,10 0 0 1 -9.99991,9.999907 10,10 0 0 1 -9.99991,-9.999907 10,10 0 0 1 9.99991,-9.999906 z m 36.38021,0 a 10,10 0 0 1 9.99991,9.999906 10,10 0 0 1 -9.99991,9.999907 10,10 0 0 1 -9.99991,-9.999907 10,10 0 0 1 9.99991,-9.999906 z" />
    <rect
       style="fill:#3d64dd;fill-opacity:1;stroke-width:7.40833;stroke-linecap:round"
       id="rect4"
       width="60"
       height="60"
       x="-84.84687"
       y="0.63750052"
       rx="5"
       ry="5" />
    <circle
       style="fill:#1a1a1a;fill-opacity:1;stroke-width:7.40833;stroke-linecap:round"
       id="circle5"
       cx="-72.838539"
       cy="13.229166"
       r="10" />
    <circle
       style="fill:#1a1a1a;fill-opacity:1;stroke-width:7.40833;stroke-linecap:round"
       id="circle6"
       cx="-36.458332"
       cy="13.229166"
       r="10" />
    <circle
       style="fill:#1a1a1a;fill-opacity:1;stroke-width:7.40833;stroke-linecap:round"
       id="circle7"
       cx="-36.458332"
       cy="49.609375"
       r="10" />
    <circle
       style="fill:#1a1a1a;fill-opacity:1;stroke-width:7.40833;stroke-linecap:round"
       id="circle8"
       cx="-72.838539"
       cy="49.609375"
       r="10" />
    <ellipse
       style="fill:#1a1a1a;fill-opacity:1;stroke-width:8.3253;stroke-linecap:round"
       id="ellipse8"
       cx="-54.846874"
       cy="30.637499"
       rx="21.695833"
       ry="5.8208332" />
    <ellipse
       style="fill:#1a1a1a;fill-opacity:1;stroke-width:8.3253;stroke-linecap:round"
       id="ellipse9"
       cx="30.637499"
       cy="54.846874"
       rx="21.695833"
       ry="5.8208332"
       transform="rotate(90)" />
    <path
       id="path3"
       style="fill:#8da5f3;fill-opacity:1;stroke-width:7.40833;stroke-linecap:round"
       d="M 22.630143 10.200928 A 6.3430824 6.3430824 0 0 1 16.933333 13.758333 A 6.3430824 6.3430824 0 0 1 11.250993 10.209713 A 12.699999 6.3499994 0 0 0 4.2333333 15.875 A 12.699999 6.3499994 0 0 0 4.3025798 16.403133 C 4.2590828 16.572704 4.2333333 16.749824 4.2333333 16.933333 L 4.2333333 29.633333 C 4.2333333 30.805966 5.1773662 31.75 6.35 31.75 L 27.516667 31.75 C 28.6893 31.75 29.633333 30.805966 29.633333 29.633333 L 29.633333 16.933333 C 29.633333 16.769756 29.61283 16.611166 29.57804 16.458427 A 12.699999 6.3499994 0 0 0 29.633333 15.875 A 12.699999 6.3499994 0 0 0 22.630143 10.200928 z M 22.775871 16.976742 A 2.0843859 2.0843859 0 0 1 24.860498 19.061369 A 2.0843859 2.0843859 0 0 1 22.775871 21.145996 A 2.0843859 2.0843859 0 0 1 20.69176 19.061369 A 2.0843859 2.0843859 0 0 1 22.775871 16.976742 z M 10.017993 17.271814 C 11.091111 17.271814 11.954826 18.423262 11.954826 19.854085 L 11.954826 20.500041 L 12.600781 20.500041 C 14.031604 20.500041 15.183053 21.363755 15.183053 22.436873 C 15.183053 23.50999 14.031604 24.374223 12.600781 24.374223 L 11.954826 24.374223 L 11.954826 25.019661 C 11.954826 26.450484 11.091111 27.60245 10.017993 27.60245 C 8.9448768 27.60245 8.0806437 26.450484 8.0806437 25.019661 L 8.0806437 24.374223 L 7.4352051 24.374223 C 6.0043821 24.374223 4.852417 23.50999 4.852417 22.436873 C 4.852417 21.363755 6.0043821 20.500041 7.4352051 20.500041 L 8.0806437 20.500041 L 8.0806437 19.854085 C 8.0806437 18.423262 8.9448768 17.271814 10.017993 17.271814 z M 19.13785 20.076294 A 2.0843859 2.0843859 0 0 1 21.22196 22.160404 A 2.0843859 2.0843859 0 0 1 19.13785 24.245032 A 2.0843859 2.0843859 0 0 1 17.053223 22.160404 A 2.0843859 2.0843859 0 0 1 19.13785 20.076294 z M 26.573572 20.352763 A 2.0843859 2.0843859 0 0 1 28.658199 22.436873 A 2.0843859 2.0843859 0 0 1 26.573572 24.521501 A 2.0843859 2.0843859 0 0 1 24.489461 22.436873 A 2.0843859 2.0843859 0 0 1 26.573572 20.352763 z M 22.775871 23.283333 A 2.0843859 2.0843859 0 0 1 24.860498 25.367961 A 2.0843859 2.0843859 0 0 1 22.775871 27.452071 A 2.0843859 2.0843859 0 0 1 20.69176 25.367961 A 2.0843859 2.0843859 0 0 1 22.775871 23.283333 z M 15.2585 26.847457 L 17.080611 26.847457 C 17.585335 26.847457 17.991667 27.146009 17.991667 27.516667 C 17.991667 27.887325 17.585335 28.185876 17.080611 28.185876 L 15.2585 28.185876 C 14.753776 28.185876 14.347445 27.887325 14.347445 27.516667 C 14.347445 27.146009 14.753776 26.847457 15.2585 26.847457 z " />
    <circle
       style="fill:#8da5f3;fill-opacity:1;stroke-width:7.40833;stroke-linecap:round"
       id="circle3"
       cx="16.926414"
       cy="7.4083328"
       r="5.298584" />
  </g>
</svg>
