<?xml version="1.0" encoding="UTF-8" standalone="no"?>
<!-- Created with Inkscape (http://www.inkscape.org/) -->

<svg
   width="128"
   height="128"
   viewBox="0 0 33.866666 33.866667"
   version="1.1"
   id="svg1"
   inkscape:version="1.4 (86a8ad7, 2024-10-11)"
   sodipodi:docname="weapon.svg"
   xmlns:inkscape="http://www.inkscape.org/namespaces/inkscape"
   xmlns:sodipodi="http://sodipodi.sourceforge.net/DTD/sodipodi-0.dtd"
   xmlns="http://www.w3.org/2000/svg"
   xmlns:svg="http://www.w3.org/2000/svg">
  <sodipodi:namedview
     id="namedview1"
     pagecolor="#ffffff"
     bordercolor="#000000"
     borderopacity="0.25"
     inkscape:showpageshadow="2"
     inkscape:pageopacity="0.0"
     inkscape:pagecheckerboard="true"
     inkscape:deskcolor="#d1d1d1"
     inkscape:document-units="mm"
     inkscape:zoom="4.59"
     inkscape:cx="71.132898"
     inkscape:cy="55.010893"
     inkscape:window-width="1920"
     inkscape:window-height="1009"
     inkscape:window-x="-8"
     inkscape:window-y="-8"
     inkscape:window-maximized="1"
     inkscape:current-layer="layer1"
     showgrid="true">
    <inkscape:grid
       id="grid1"
       units="px"
       originx="0"
       originy="0"
       spacingx="1.0583333"
       spacingy="1.0583333"
       empcolor="#0099e5"
       empopacity="0.30196078"
       color="#0099e5"
       opacity="0.14901961"
       empspacing="4"
       enabled="true"
       visible="true"
       dotted="false" />
  </sodipodi:namedview>
  <defs
     id="defs1" />
  <g
     inkscape:label="Layer 1"
     inkscape:groupmode="layer"
     id="layer1">
    <path
       id="rect1"
       style="fill:#8da5f3;fill-opacity:1;stroke-width:7.40833;stroke-linecap:round"
       d="m 117.3458,1.7497622 c -2.77,0 -5.00021,2.2302116 -5.00021,5.0002116 V 56.750022 c 0,2.77 2.23021,5.000212 5.00021,5.000212 h 50.00005 c 2.77,0 5.00021,-2.230212 5.00021,-5.000212 V 6.7499738 c 0,-2.77 -2.23021,-5.0002116 -5.00021,-5.0002116 z m 7.00836,2.5920898 a 10,10 0 0 1 9.99991,9.999906 10,10 0 0 1 -9.99991,9.999906 10,10 0 0 1 -9.99991,-9.999906 10,10 0 0 1 9.99991,-9.999906 z m 36.38021,0 a 10,10 0 0 1 9.99991,9.999906 10,10 0 0 1 -9.99991,9.999906 10,10 0 0 1 -9.99991,-9.999906 10,10 0 0 1 9.99991,-9.999906 z m -18.38854,5.712312 a 5.8208332,21.695833 0 0 1 5.62188,16.080156 21.695833,5.8208332 0 0 1 16.07395,5.615678 21.695833,5.8208332 0 0 1 -16.07395,5.615678 5.8208332,21.695833 0 0 1 -5.62188,16.080155 5.8208332,21.695833 0 0 1 -5.6162,-16.079639 21.695833,5.8208332 0 0 1 -16.07964,-5.616194 21.695833,5.8208332 0 0 1 16.07964,-5.616195 5.8208332,21.695833 0 0 1 5.6162,-16.079639 z M 124.35416,40.72206 a 10,10 0 0 1 9.99991,9.999906 10,10 0 0 1 -9.99991,9.999907 10,10 0 0 1 -9.99991,-9.999907 10,10 0 0 1 9.99991,-9.999906 z m 36.38021,0 a 10,10 0 0 1 9.99991,9.999906 10,10 0 0 1 -9.99991,9.999907 10,10 0 0 1 -9.99991,-9.999907 10,10 0 0 1 9.99991,-9.999906 z" />
    <rect
       style="fill:#3d64dd;fill-opacity:1;stroke-width:7.40833;stroke-linecap:round"
       id="rect4"
       width="60"
       height="60"
       x="-84.84687"
       y="0.63750052"
       rx="5"
       ry="5" />
    <circle
       style="fill:#1a1a1a;fill-opacity:1;stroke-width:7.40833;stroke-linecap:round"
       id="circle5"
       cx="-72.838539"
       cy="13.229166"
       r="10" />
    <circle
       style="fill:#1a1a1a;fill-opacity:1;stroke-width:7.40833;stroke-linecap:round"
       id="circle6"
       cx="-36.458332"
       cy="13.229166"
       r="10" />
    <circle
       style="fill:#1a1a1a;fill-opacity:1;stroke-width:7.40833;stroke-linecap:round"
       id="circle7"
       cx="-36.458332"
       cy="49.609375"
       r="10" />
    <circle
       style="fill:#1a1a1a;fill-opacity:1;stroke-width:7.40833;stroke-linecap:round"
       id="circle8"
       cx="-72.838539"
       cy="49.609375"
       r="10" />
    <ellipse
       style="fill:#1a1a1a;fill-opacity:1;stroke-width:8.3253;stroke-linecap:round"
       id="ellipse8"
       cx="-54.846874"
       cy="30.637499"
       rx="21.695833"
       ry="5.8208332" />
    <ellipse
       style="fill:#1a1a1a;fill-opacity:1;stroke-width:8.3253;stroke-linecap:round"
       id="ellipse9"
       cx="30.637499"
       cy="54.846874"
       rx="21.695833"
       ry="5.8208332"
       transform="rotate(90)" />
    <path
       id="path3"
       style="fill:#8da5f3;fill-opacity:1;stroke-width:7.40833;stroke-linecap:round"
       d="m 56.003815,5.6291129 a 6.3430824,6.3430824 0 0 1 -5.69681,3.557405 6.3430824,6.3430824 0 0 1 -5.68234,-3.54862 12.699999,6.3499994 0 0 0 -7.017659,5.6652871 12.699999,6.3499994 0 0 0 0.06925,0.528133 c -0.0435,0.169571 -0.06925,0.346691 -0.06925,0.5302 v 12.7 c 0,1.172633 0.944033,2.116667 2.116666,2.116667 h 21.166667 c 1.172633,0 2.116666,-0.944034 2.116666,-2.116667 v -12.7 c 0,-0.163577 -0.0205,-0.322167 -0.05529,-0.474906 a 12.699999,6.3499994 0 0 0 0.05529,-0.583427 12.699999,6.3499994 0 0 0 -7.00319,-5.6740721 z m 0.145728,6.7758141 a 2.0843859,2.0843859 0 0 1 2.084627,2.084627 2.0843859,2.0843859 0 0 1 -2.084627,2.084627 2.0843859,2.0843859 0 0 1 -2.084111,-2.084627 2.0843859,2.0843859 0 0 1 2.084111,-2.084627 z m -12.757878,0.295072 c 1.073118,0 1.936833,1.151448 1.936833,2.582271 v 0.645956 h 0.645955 c 1.430823,0 2.582272,0.863714 2.582272,1.936832 0,1.073117 -1.151449,1.93735 -2.582272,1.93735 h -0.645955 v 0.645438 c 0,1.430823 -0.863715,2.582789 -1.936833,2.582789 -1.073116,0 -1.937349,-1.151966 -1.937349,-2.582789 v -0.645438 h -0.645439 c -1.430823,0 -2.582788,-0.864233 -2.582788,-1.93735 0,-1.073118 1.151965,-1.936832 2.582788,-1.936832 h 0.645439 V 15.28227 c 0,-1.430823 0.864233,-2.582271 1.937349,-2.582271 z m 9.119857,2.80448 a 2.0843859,2.0843859 0 0 1 2.08411,2.08411 2.0843859,2.0843859 0 0 1 -2.08411,2.084628 2.0843859,2.0843859 0 0 1 -2.084627,-2.084628 2.0843859,2.0843859 0 0 1 2.084627,-2.08411 z m 7.435722,0.276469 a 2.0843859,2.0843859 0 0 1 2.084627,2.08411 2.0843859,2.0843859 0 0 1 -2.084627,2.084628 2.0843859,2.0843859 0 0 1 -2.084111,-2.084628 2.0843859,2.0843859 0 0 1 2.084111,-2.08411 z m -3.797701,2.93057 a 2.0843859,2.0843859 0 0 1 2.084627,2.084628 2.0843859,2.0843859 0 0 1 -2.084627,2.08411 2.0843859,2.0843859 0 0 1 -2.084111,-2.08411 2.0843859,2.0843859 0 0 1 2.084111,-2.084628 z m -7.517371,3.564124 h 1.822111 c 0.504724,0 0.911056,0.298552 0.911056,0.66921 0,0.370658 -0.406332,0.669209 -0.911056,0.669209 h -1.822111 c -0.504724,0 -0.911055,-0.298551 -0.911055,-0.669209 0,-0.370658 0.406331,-0.66921 0.911055,-0.66921 z" />
    <circle
       style="fill:#8da5f3;fill-opacity:1;stroke-width:7.40833;stroke-linecap:round"
       id="circle3"
       cx="50.300087"
       cy="2.8365178"
       r="5.298584" />
    <path
       id="rect12"
       style="fill:#8da5f3;stroke-width:8.64305;stroke-linecap:round"
       d="m -24.694616,1.5874989 c -8.208432,0 -14.816666,6.6082344 -14.816666,14.8166661 0,0.416213 0.02093,0.827218 0.05426,1.23455 h -0.05426 v 13.582117 h 14.816666 14.8166668 V 17.638715 h -0.05426 c 0.033327,-0.407332 0.05426,-0.818337 0.05426,-1.23455 0,-8.2084317 -6.6082338,-14.8166661 -14.8166668,-14.8166661 z m -6.173783,7.4083333 a 3.7041664,3.7041659 0 0 1 3.704167,3.7041668 3.7041664,3.7041659 0 0 1 -3.704167,3.704166 3.7041664,3.7041659 0 0 1 -3.704167,-3.704166 3.7041664,3.7041659 0 0 1 3.704167,-3.7041668 z m 12.347567,0 a 3.7041664,3.7041659 0 0 1 3.704166,3.7041668 3.7041664,3.7041659 0 0 1 -3.704166,3.704166 3.7041664,3.7041659 0 0 1 -3.704167,-3.704166 3.7041664,3.7041659 0 0 1 3.704167,-3.7041668 z m -6.249748,12.3403318 6.027539,2.27738 2.954858,-1.970939 a 1.75,1.75 0 0 1 2.427759,0.486276 1.75,1.75 0 0 1 -0.486275,2.425691 l -4.451408,2.968811 -6.320028,-2.388484 -4.99401,2.357478 -5.669938,-2.519742 a 1.75,1.75 0 0 1 -0.888835,-2.310454 1.75,1.75 0 0 1 2.308386,-0.888834 l 4.207496,1.869136 z" />
    <path
       id="path15"
       style="fill:#8da5f3;fill-opacity:1;stroke:none;stroke-width:3.94769;stroke-linecap:round;stroke-dasharray:none;stroke-opacity:1"
       d="M 1.7582083,6.157007 C 0.99237634,7.5026 1.1670323,9.0462157 2.1495683,9.6179177 L 10.45776,14.452164 A 10.952784,11.081291 2.4026901 0 0 15.538588,26.96399 10.952784,11.081291 2.4026901 0 0 30.4969,22.879041 10.952784,11.081291 2.4026901 0 0 26.474208,7.749711 10.952784,11.081291 2.4026901 0 0 13.207965,9.5860207 L 4.9142804,4.760217 C 3.9317464,4.188516 2.5240414,4.811407 1.7582083,6.157007 Z M 15.850668,12.80328 a 6.883289,6.5950811 36.380407 0 1 6.835895,-1.857806 1.7782324,10.729342 29.630478 0 0 -2.57823,3.871192 10.669909,1.7881387 30.209449 0 0 -4.257665,-2.013386 z m -1.326013,2.335704 a 10.669909,1.7881387 30.209449 0 0 3.861473,2.709508 1.7782324,10.729342 29.630478 0 0 -2.006981,4.179339 6.883289,6.5950811 36.380407 0 1 -1.854492,-6.888847 z m 4.246619,8.428226 a 1.7782324,10.729342 29.630478 0 0 2.625728,-3.927735 10.669909,1.7881387 30.209449 0 0 4.696571,2.329378 6.883289,6.5950811 36.380407 0 1 -7.322299,1.598357 z m 6.422588,-11.284721 a 6.883289,6.5950811 36.380407 0 1 2.312301,7.204393 10.669909,1.7881387 30.209449 0 0 -4.35163,-2.935453 1.7782324,10.729342 29.630478 0 0 2.039329,-4.26894 z" />
    <circle
       style="fill:#8da5f3;fill-opacity:1;stroke:none;stroke-width:3;stroke-linecap:round;stroke-dasharray:none;stroke-opacity:1"
       id="path17"
       cx="-20.92687"
       cy="-10.583332"
       r="10.583332" />
    <circle
       style="fill:#8da5f3;fill-opacity:1;stroke:none;stroke-width:1.03007;stroke-linecap:round;stroke-dasharray:none;stroke-opacity:1"
       id="circle17"
       cx="-10.343538"
       cy="0.59949303"
       r="3.6338401" />
    <circle
       style="fill:#8da5f3;fill-opacity:1;stroke:none;stroke-width:0.430067;stroke-linecap:round;stroke-dasharray:none;stroke-opacity:1"
       id="circle18"
       cx="-6.7096977"
       cy="6.3500004"
       r="1.5171741" />
    <circle
       style="fill:#8da5f3;fill-opacity:1;stroke:none;stroke-width:0.430067;stroke-linecap:round;stroke-dasharray:none;stroke-opacity:1"
       id="circle19"
       cx="-6.7096977"
       cy="6.3500004"
       r="1.5171741" />
  </g>
</svg>
